<?xml version="1.0" standalone="no"?>
<!DOCTYPE svg PUBLIC "-//W3C//DTD SVG 20010904//EN"
 "http://www.w3.org/TR/2001/REC-SVG-20010904/DTD/svg10.dtd">
<svg version="1.0" xmlns="http://www.w3.org/2000/svg"
 width="1280.000000pt" height="853.000000pt" viewBox="0 0 1280.000000 853.000000"
 preserveAspectRatio="xMidYMid meet">
<metadata>
Created by potrace 1.15, written by Peter Selinger 2001-2017
</metadata>
<g transform="translate(0.000000,853.000000) scale(0.100000,-0.100000)"
fill="#607d8b" stroke="none">
<path d="M3795 7931 c-349 -102 -513 -472 -354 -799 39 -81 129 -177 210 -225
95 -56 176 -78 289 -79 315 -1 563 247 562 562 -1 164 -61 301 -181 411 -142
130 -349 182 -526 130z"/>
<path d="M4224 6702 l-240 -77 -135 -143 -134 -144 -214 -452 -215 -452 -648
-329 c-356 -181 -648 -332 -648 -336 0 -3 48 -105 108 -226 l107 -221 595 222
595 221 282 204 c155 111 285 203 289 202 11 0 305 -1241 301 -1267 -2 -11
-187 -304 -411 -651 l-407 -631 1 -1162 1 -1162 207 6 c114 4 249 9 300 12 84
5 92 8 96 27 3 12 23 407 46 877 22 470 43 895 47 944 l6 88 430 545 c236 299
433 541 437 536 4 -4 177 -341 385 -748 302 -592 458 -882 778 -1450 220 -390
405 -715 411 -722 8 -9 75 23 276 133 146 80 269 149 273 153 5 5 -154 330
-352 722 l-361 714 -286 1009 -286 1008 -318 762 c-174 418 -314 762 -310 764
14 5 565 -139 576 -151 6 -7 113 -268 238 -582 125 -313 231 -574 235 -578 7
-7 440 149 477 171 7 5 -57 242 -191 706 l-201 698 -650 378 -649 377 -290 42
c-159 22 -294 41 -300 40 -5 0 -118 -35 -251 -77z"/>
</g>
</svg>
